HIERARCHY
ROOT root
{
	OFFSET 0.000000 0.000000 0.000000
	CHANNELS 6 Xposition Yposition Zposition Zrotation Yrotation Xrotation
	JOINT lhip
	{
		OFFSET 0.058581 -0.082280 -0.017664
		CHANNELS 3 Zrotation Yrotation Xrotation
		JOINT lknee
		{
			OFFSET 0.043451 -0.386469 0.008037
			CHANNELS 3 Zrotation Yrotation Xrotation
			JOINT lankle
			{
				OFFSET -0.014790 -0.426874 -0.037428
				CHANNELS 3 Zrotation Yrotation Xrotation
				JOINT ltoe
				{
					OFFSET 0.041054 -0.060286 0.122042
					CHANNELS 3 Zrotation Yrotation Xrotation
					End Site
					{
						OFFSET 0.000000 0.000000 0.000000
					}
				}
			}
		}
	}
	JOINT rhip
	{
		OFFSET -0.060310 -0.090513 -0.013543
		CHANNELS 3 Zrotation Yrotation Xrotation
		JOINT rknee
		{
			OFFSET -0.043257 -0.383688 -0.004843
			CHANNELS 3 Zrotation Yrotation Xrotation
			JOINT rankle
			{
				OFFSET 0.019056 -0.420046 -0.034562
				CHANNELS 3 Zrotation Yrotation Xrotation
				JOINT rtoe
				{
					OFFSET -0.034840 -0.062106 0.130323
					CHANNELS 3 Zrotation Yrotation Xrotation
					End Site
					{
						OFFSET 0.000000 0.000000 0.000000
					}
				}
			}
		}
	}
	JOINT lowerback
	{
		OFFSET 0.004439 0.124404 -0.038385
		CHANNELS 3 Zrotation Yrotation Xrotation
		JOINT upperback
		{
			OFFSET 0.004488 0.137956 0.026820
			CHANNELS 3 Zrotation Yrotation Xrotation
			JOINT chest
			{
				OFFSET -0.002265 0.056032 0.002855
				CHANNELS 3 Zrotation Yrotation Xrotation
				JOINT lowerneck
				{
					OFFSET -0.013390 0.211636 -0.033468
					CHANNELS 3 Zrotation Yrotation Xrotation
					JOINT upperneck
					{
						OFFSET 0.010113 0.088937 0.050410
						CHANNELS 3 Zrotation Yrotation Xrotation
						End Site
						{
							OFFSET 0.000000 0.000000 0.000000
						}
					}
				}
				JOINT lclavicle
				{
					OFFSET 0.071702 0.114000 -0.018898
					CHANNELS 3 Zrotation Yrotation Xrotation
					JOINT lshoulder
					{
						OFFSET 0.122921 0.045205 -0.019046
						CHANNELS 3 Zrotation Yrotation Xrotation
						JOINT lelbow
						{
							OFFSET 0.255332 -0.015649 -0.022946
							CHANNELS 3 Zrotation Yrotation Xrotation
							JOINT lwrist
							{
								OFFSET 0.265709 0.012698 -0.007375
								CHANNELS 3 Zrotation Yrotation Xrotation
								End Site
								{
									OFFSET 0.000000 0.000000 0.000000
								}
							}
						}
					}
				}
				JOINT rclavicle
				{
					OFFSET -0.082954 0.112472 -0.023707
					CHANNELS 3 Zrotation Yrotation Xrotation
					JOINT rshoulder
					{
						OFFSET -0.113228 0.046853 -0.008472
						CHANNELS 3 Zrotation Yrotation Xrotation
						JOINT relbow
						{
							OFFSET -0.260127 -0.014369 -0.031269
							CHANNELS 3 Zrotation Yrotation Xrotation
							JOINT rwrist
							{
								OFFSET -0.269108 0.006794 -0.006027
								CHANNELS 3 Zrotation Yrotation Xrotation
								End Site
								{
									OFFSET 0.000000 0.000000 0.000000
								}
							}
						}
					}
				}
			}
		}
	}
}
MOTION
Frames: 8
Frame Time: 0.033333
-0.348535 0.271452 1.170860 94.038734 -1.393930 92.630695 4.743805 -5.801630 -8.672953 -2.023468 8.789785 35.271006 -7.291904 10.496497 26.376359 0.000000 -0.000000 0.000000 -5.857491 0.431008 -8.209000 -1.624655 -10.450926 40.349724 5.596651 -5.477406 26.116633 0.000000 -0.000000 0.000000 -3.879199 1.671500 7.352141 3.608462 -4.646582 5.972809 0.453754 -1.335741 -0.828491 -2.488156 -1.799281 12.589992 3.631192 -1.093920 4.625379 -20.790318 -6.734426 5.468175 -64.166573 -16.653151 12.159611 10.633827 -20.442013 -6.998491 0.647923 -8.922129 -16.076007 22.536197 6.722431 3.909595 60.683214 11.706322 16.435210 -15.253884 25.250130 -2.717682 2.559358 2.475804 -8.101509 
-0.314372 0.270781 1.194125 94.433077 -0.844654 90.001211 5.202416 -3.486971 -10.811218 -2.076415 7.870777 38.854282 -6.667516 9.843222 22.900839 0.000000 -0.000000 0.000000 -5.042220 -0.078469 -11.544186 -2.197665 -9.335809 48.804143 4.274319 -5.232200 21.110705 0.000000 -0.000000 0.000000 -3.277159 1.193745 12.580699 3.260161 -4.152267 4.693131 0.610361 -1.378446 -0.083256 -1.875078 -1.802026 8.862207 3.574481 -1.692671 6.922529 -21.391907 -7.535981 4.801411 -62.736810 -16.061528 10.665333 10.147058 -20.423386 -7.412851 1.663820 -9.016990 -17.338818 23.038181 8.136936 3.757290 59.923304 11.475397 15.343141 -15.080971 24.055094 -4.014439 2.037611 2.725933 -7.073154 
-0.279044 0.270895 1.206240 94.746232 -0.554065 88.764398 5.529210 -1.814726 -13.371836 -3.064210 6.819047 38.388963 -7.336969 8.255962 20.240578 0.000000 -0.000000 0.000000 -4.751044 -1.487462 -15.040889 -2.187690 -8.824785 51.296779 4.546977 -4.382046 17.170211 0.000000 -0.000000 0.000000 -3.092043 1.272038 15.959200 3.124684 -4.087080 3.468948 0.864954 -1.506554 0.137779 -1.409840 -1.540326 7.125539 3.646643 -2.461477 8.761303 -22.090910 -8.086163 4.464038 -61.168606 -15.248893 9.923342 9.185327 -19.372805 -7.107844 2.039428 -9.441430 -16.321594 23.554301 8.848837 3.794132 58.654005 10.691581 14.476375 -14.098071 22.963895 -3.867447 1.687406 3.049482 -5.923306 
-0.241471 0.270528 1.208939 95.153104 -0.335538 88.751867 5.876499 -1.711073 -15.749234 -4.260793 6.564634 34.089526 -8.462519 6.730538 19.435507 0.000000 -0.000000 0.000000 -4.698472 -2.166207 -17.642780 -1.487704 -9.765169 47.026041 5.914846 -3.755189 16.448952 0.000000 -0.000000 0.000000 -3.138374 1.580623 16.985291 3.278341 -4.125196 3.049158 1.109495 -1.611379 -0.221968 -1.144654 -1.473922 7.544548 3.910476 -2.937554 9.100035 -23.082604 -7.574176 4.503643 -59.770544 -14.849959 9.959608 8.433771 -18.377447 -7.504686 1.176724 -9.693823 -14.878290 24.318452 8.236051 4.132172 57.151397 10.060926 14.113800 -13.254649 22.025360 -3.611718 1.584606 3.144561 -5.110993 
-0.200967 0.269542 1.201793 95.463859 -0.040443 88.646194 6.114234 -2.435155 -16.504315 -4.956510 6.323187 26.784664 -9.189356 6.036093 19.946078 0.000000 -0.000000 0.000000 -4.679273 -2.201659 -18.029281 -0.337164 -11.511770 37.801913 8.053465 -3.635115 18.099083 0.000000 -0.000000 0.000000 -3.057845 1.909833 17.120980 3.339479 -4.083143 3.395795 1.325762 -1.522002 -0.605007 -1.067914 -1.690755 8.657593 4.452427 -3.322521 8.476973 -23.529035 -6.494368 4.828733 -59.225357 -14.877598 10.331162 8.198719 -18.223134 -8.410844 1.005244 -10.233317 -15.061003 24.708437 7.167268 4.841935 56.287578 9.796960 13.929374 -13.256024 21.495570 -4.074220 0.969588 3.288586 -4.909353 
-0.158467 0.268380 1.183122 95.602395 0.216121 88.433070 6.043992 -2.860383 -16.235603 -4.825506 5.751033 18.023872 -10.125311 5.477956 21.824574 0.000000 -0.000000 0.000000 -4.589647 -2.640150 -17.250364 0.985219 -12.784922 26.552644 10.467647 -3.337118 20.623240 0.000000 -0.000000 0.000000 -2.809305 2.233660 16.840235 3.120882 -4.075496 3.731232 1.495889 -1.346048 -0.729812 -1.122832 -1.859134 9.762780 5.101805 -3.786771 8.133284 -23.220098 -5.316999 5.081192 -59.431304 -14.558811 10.789621 8.195726 -18.603125 -8.733700 1.929760 -11.025270 -15.436171 24.480276 6.234105 5.563651 56.224171 9.437816 13.820552 -13.422958 21.523773 -4.447487 -0.047470 3.663415 -4.856308 
-0.114218 0.267422 1.152076 95.404949 0.394405 88.445381 5.897117 -2.327420 -15.694050 -4.771706 5.354074 9.229336 -11.504635 4.926497 24.936450 0.000000 -0.000000 0.000000 -4.461578 -3.628417 -16.339451 2.538294 -12.925160 15.081586 12.348997 -3.134496 24.514318 0.000000 -0.000000 0.000000 -2.457581 2.567342 15.684985 2.754376 -3.980576 4.009452 1.536810 -1.169866 -0.679038 -1.606682 -2.144953 11.238747 5.843263 -3.786355 7.976980 -22.886157 -4.116266 5.384488 -59.454616 -13.918193 10.975493 7.896458 -19.115803 -9.140268 3.223418 -11.515647 -16.558646 23.941087 5.356799 6.187137 56.467876 9.048068 13.922060 -13.186158 21.929515 -4.543042 -1.107129 3.932217 -4.919767 
-0.068066 0.266919 1.109241 94.793350 0.435845 88.271703 5.585050 -1.360971 -15.073366 -5.080559 6.205474 3.444678 -11.597161 5.354955 27.432629 0.000000 -0.000000 0.000000 -4.427441 -4.636327 -15.639814 3.813416 -12.487827 6.384587 12.399492 -4.110954 28.371397 0.000000 -0.000000 0.000000 -2.183594 2.857200 13.809380 2.405971 -3.676528 4.440347 1.425228 -0.968175 -0.361106 -2.478347 -2.663690 12.746206 6.394630 -3.282310 8.141261 -22.690875 -2.930322 5.829089 -59.121781 -13.490673 10.700834 7.297103 -19.172441 -9.140291 3.934948 -11.588994 -17.284179 23.501799 4.613259 6.871069 56.539096 9.072649 14.178445 -12.699486 22.289937 -4.031440 -1.525218 3.983752 -4.481693 
